# xmcd
# 
# Track frame offsets:
#     150
#     21462
#     43049
#     64299
#     85551
# 
# Disc length: 1425
# 
# Revision: 1
# Processed by: cddbd v1.5.2PL0 Copyright (c) Steve Scherf et al.
# Submitted via: BonkEnc v1.0.8
# 
DISCID=3b058f05
DTITLE=秋元順子 - 愛のままで…
DYEAR=2008
DGENRE=JPop
TTITLE0=愛のままで…
TTITLE1=忘れ物
TTITLE2=愛のままで_オリジナルカラオケAm
TTITLE3=愛のままで_一般用カラオケB♭m
TTITLE4=忘れ物_オリジナルカラオケF
EXTD=
EXTT0=
EXTT1=
EXTT2=
EXTT3=
EXTT4=
PLAYORDER=
